<svg width="24" height="23" viewBox="0 0 24 23" fill="none" xmlns="http://www.w3.org/2000/svg">
<path d="M12.0013 2.28381C14.7418 -0.17669 18.9768 -0.0950234 21.617 2.54981C24.256 5.19581 24.347 9.40981 21.8923 12.1585L11.999 22.0658L2.108 12.1585C-0.346664 9.40981 -0.254497 5.18881 2.38334 2.54981C5.02584 -0.0915233 9.25267 -0.18019 12.0013 2.28381ZM19.965 4.19831C18.215 2.44598 15.3917 2.37481 13.56 4.01981L12.0025 5.41748L10.4438 4.02098C8.60634 2.37364 5.78884 2.44598 4.03417 4.20064C2.29584 5.93898 2.20834 8.72148 3.81017 10.5601L12.0002 18.763L20.1902 10.5613C21.7932 8.72148 21.7057 5.94248 19.965 4.19831Z" fill="white"/>
</svg>
