<svg width="25" height="25" viewBox="0 0 25 25" fill="none" xmlns="http://www.w3.org/2000/svg">
<path d="M10.8335 0.333984C16.6295 0.333984 21.3335 5.03798 21.3335 10.834C21.3335 16.63 16.6295 21.334 10.8335 21.334C5.0375 21.334 0.333496 16.63 0.333496 10.834C0.333496 5.03798 5.0375 0.333984 10.8335 0.333984ZM10.8335 19.0007C15.345 19.0007 19.0002 15.3455 19.0002 10.834C19.0002 6.32132 15.345 2.66732 10.8335 2.66732C6.32083 2.66732 2.66683 6.32132 2.66683 10.834C2.66683 15.3455 6.32083 19.0007 10.8335 19.0007ZM20.7327 19.0835L24.0332 22.3828L22.3823 24.0337L19.083 20.7332L20.7327 19.0835Z" fill="white"/>
</svg>
