<svg width="34" height="34" viewBox="0 0 34 34" fill="none" xmlns="http://www.w3.org/2000/svg">
<circle cx="17" cy="17" r="17" fill="#EDEEEF"/>
<path d="M10 26.24L10.072 26.024C10.712 25.592 11.2 25.152 11.536 24.704C11.888 24.272 12.136 23.752 12.28 23.144C12.424 22.52 12.496 21.704 12.496 20.696V10.76C12.496 10.232 12.44 9.888 12.328 9.728C12.216 9.568 11.984 9.488 11.632 9.488C11.44 9.488 11.232 9.504 11.008 9.536C10.8 9.552 10.656 9.568 10.576 9.584L10.48 9.44L10.648 8.216H13.408C13.952 8.216 14.56 8.192 15.232 8.144C15.904 8.08 16.4974 8.19348 16.7054 8.16148C16.7054 8.16148 16.412 9.14 16.456 9.32C16.5 9.5 15.792 9.456 15.616 9.536C15.44 9.616 15.32 9.736 15.256 9.896C15.192 10.056 15.152 10.312 15.136 10.664C15.072 11.704 14.944 15.464 14.944 15.464C14.944 15.464 14.84 19.424 14.824 20.912C14.808 22.528 14.456 23.824 13.768 24.8C13.096 25.792 12.016 26.56 10.528 27.104L10 26.24Z" fill="#000D30"/>
<path d="M10 26.24L10.072 26.024C10.712 25.592 11.2 25.152 11.536 24.704C11.888 24.272 12.136 23.752 12.28 23.144C12.424 22.52 12.496 21.704 12.496 20.696V10.76C12.496 10.232 12.44 9.888 12.328 9.728C12.216 9.568 11.984 9.488 11.632 9.488C11.44 9.488 11.232 9.504 11.008 9.536C10.8 9.552 10.656 9.568 10.576 9.584L10.48 9.44L10.648 8.216H13.408C13.952 8.216 14.56 8.192 15.232 8.144C15.904 8.08 16.4974 8.19348 16.7054 8.16148C16.7054 8.16148 16.412 9.14 16.456 9.32C16.5 9.5 15.792 9.456 15.616 9.536C15.44 9.616 15.32 9.736 15.256 9.896C15.192 10.056 15.152 10.312 15.136 10.664C15.072 11.704 14.944 15.464 14.944 15.464C14.944 15.464 14.84 19.424 14.824 20.912C14.808 22.528 14.456 23.824 13.768 24.8C13.096 25.792 12.016 26.56 10.528 27.104L10 26.24Z" fill="#000D30"/>
<path d="M16.144 22.448C16.768 22.352 17.192 22.16 17.416 21.872C17.656 21.584 17.776 21.096 17.776 20.408C17.776 16.6309 17.776 14.5132 17.776 10.736C17.776 10.224 17.72 9.88 17.608 9.704C17.496 9.528 17.264 9.44 16.912 9.44C16.752 9.44 16.5858 9.424 16.4258 9.44C16.2818 9.456 15.548 9.5 15.5 9.5C15.452 9.5 16.048 9.344 16.048 9.344L16.216 8.144L16.888 8.168L19.144 8.192C19.576 8.192 20.136 8.168 20.824 8.12C21.528 8.056 21.992 8.016 22.216 8L22.096 9.344C21.552 9.408 21.168 9.504 20.944 9.632C20.736 9.76 20.6 9.936 20.536 10.16C20.472 10.384 20.424 10.784 20.392 11.36C20.2 14.192 20.104 17.216 20.104 20.432C20.104 20.944 20.144 21.312 20.224 21.536C20.32 21.76 20.488 21.912 20.728 21.992C20.984 22.072 21.384 22.112 21.928 22.112C22.808 22.112 23.464 22.032 23.896 21.872C24.328 21.696 24.648 21.368 24.856 20.888C25.08 20.408 25.272 19.64 25.432 18.584L26.896 18.44L27.016 18.608C26.968 18.88 26.864 19.504 26.704 20.48C26.56 21.44 26.44 22.464 26.344 23.552L26.176 23.744C25.728 23.712 24.776 23.664 23.32 23.6C21.88 23.552 20.64 23.528 19.6 23.528C18.784 23.528 18.024 23.56 17.32 23.624C16.632 23.688 16.192 23.736 16 23.768L16.144 22.448Z" fill="#000D30"/>
</svg>
