<svg width="142" height="20" viewBox="0 0 142 20" fill="none" xmlns="http://www.w3.org/2000/svg">
    <path
        d="M0.408203 18.6873L0.480203 18.4713C1.1202 18.0393 1.6082 17.5993 1.9442 17.1513C2.2962 16.7193 2.5442 16.1993 2.6882 15.5913C2.8322 14.9673 2.9042 14.1513 2.9042 13.1433V3.20726C2.9042 2.67926 2.8482 2.33526 2.7362 2.17526C2.6242 2.01526 2.3922 1.93527 2.0402 1.93527C1.8482 1.93527 1.6402 1.95126 1.4162 1.98326C1.2082 1.99927 1.0642 2.01527 0.984203 2.03127L0.888203 1.88727L1.0562 0.663264H3.8162C4.3602 0.663264 4.9682 0.639265 5.6402 0.591265C6.3122 0.527265 6.7522 0.479265 6.9602 0.447266L6.8642 1.76726C6.4802 1.83126 6.2002 1.90326 6.0242 1.98326C5.8482 2.06326 5.7282 2.18326 5.6642 2.34327C5.6002 2.50327 5.5602 2.75927 5.5442 3.11127C5.4802 4.15127 5.4162 5.75127 5.3522 7.91127C5.2882 10.0553 5.2482 11.8713 5.2322 13.3593C5.2162 14.9753 4.8642 16.2713 4.1762 17.2473C3.5042 18.2393 2.4242 19.0073 0.936203 19.5513L0.408203 18.6873Z"
        fill="white" />
    <path
        d="M14.1854 16.0233L14.2574 14.9913C14.9294 14.9273 15.3614 14.8553 15.5534 14.7753C15.7614 14.6953 15.8654 14.5353 15.8654 14.2953C15.8654 14.0873 15.8174 13.8553 15.7214 13.5993L15.2654 12.0393C14.9294 12.0233 14.2974 12.0153 13.3694 12.0153C12.8734 12.0153 12.2254 12.0553 11.4254 12.1353L10.8494 13.6713C10.7694 13.9913 10.7294 14.1913 10.7294 14.2713C10.7294 14.5113 10.8014 14.6793 10.9454 14.7753C11.1054 14.8713 11.3694 14.9193 11.7374 14.9193H12.6254L12.7214 15.0393L12.5774 16.1193C12.4014 16.1033 12.0174 16.0793 11.4254 16.0473C10.8334 16.0153 10.2734 15.9993 9.74539 15.9993C9.21739 15.9993 8.73739 16.0073 8.30539 16.0233C7.87339 16.0393 7.58539 16.0473 7.44139 16.0473L7.58539 14.8953C7.90539 14.8473 8.16139 14.7353 8.35339 14.5593C8.56139 14.3673 8.75339 14.0473 8.92939 13.5993L12.5534 4.11926L15.0974 3.80727L15.3134 3.87927C15.5054 4.58327 15.9134 6.03127 16.5374 8.22327C17.1614 10.3993 17.7214 12.1913 18.2174 13.5993C18.3614 14.0633 18.5454 14.3913 18.7694 14.5833C19.0094 14.7593 19.3774 14.8713 19.8734 14.9193L19.9454 15.0393L19.8014 16.0473C19.6414 16.0473 19.3294 16.0393 18.8654 16.0233C18.4174 16.0073 17.9534 15.9993 17.4734 15.9993C16.8014 15.9993 16.1374 16.0153 15.4814 16.0473C14.8414 16.0953 14.4334 16.1273 14.2574 16.1433L14.1854 16.0233ZM13.3454 10.6953C13.9694 10.6953 14.4974 10.6713 14.9294 10.6233L13.6574 6.30327H13.4174L11.8574 10.6953H13.3454Z"
        fill="white" />
    <path
        d="M27.5542 16.3113C26.1142 12.1993 25.0182 9.20727 24.2662 7.33527H24.1222C24.0742 8.00727 23.9782 9.28727 23.8342 11.1753C23.7062 13.0473 23.6422 14.0793 23.6422 14.2713C23.6422 14.4793 23.6902 14.6313 23.7862 14.7273C23.8822 14.8233 24.0422 14.8713 24.2662 14.8713H24.9862L25.0582 14.9433L24.8662 16.0713C24.6902 16.0713 24.3782 16.0553 23.9302 16.0233C23.4822 16.0073 23.0502 15.9993 22.6342 15.9993C22.3142 15.9993 21.9542 16.0153 21.5542 16.0473C21.1542 16.0953 20.8902 16.1273 20.7622 16.1433L20.8582 14.9913C21.2582 14.9433 21.5462 14.8233 21.7222 14.6313C21.9142 14.4233 22.0342 14.0873 22.0822 13.6233C22.2102 12.6313 22.3782 11.1753 22.5862 9.25527C22.7942 7.31927 22.8982 6.23127 22.8982 5.99127C22.8982 5.67127 22.7862 5.44727 22.5622 5.31927C22.3542 5.17527 21.9462 5.08727 21.3382 5.05526L21.2422 4.91127L21.4102 3.92727C21.6022 3.94326 21.9382 3.96727 22.4182 3.99927C22.8982 4.01527 23.3622 4.02327 23.8102 4.02327C24.2262 4.02327 24.6182 4.01527 24.9862 3.99927C25.3542 3.98326 25.6022 3.96726 25.7302 3.95126C26.3062 5.80727 26.8582 7.51127 27.3862 9.06327C27.9302 10.5993 28.2822 11.5753 28.4422 11.9913H28.5862C28.7462 11.5753 29.0982 10.5993 29.6422 9.06327C30.2022 7.51127 30.7942 5.82327 31.4182 3.99927C31.6102 3.98326 31.8102 3.98326 32.0182 3.99927C32.2262 3.99927 32.4102 3.99927 32.5702 3.99927C32.7942 4.01527 33.1062 4.02327 33.5062 4.02327C33.9222 4.00727 34.3302 3.99127 34.7302 3.97526C35.1302 3.94326 35.4022 3.91927 35.5462 3.90327L35.6182 3.97526L35.4742 5.00727C34.9142 5.05527 34.5302 5.15127 34.3222 5.29527C34.1142 5.43927 34.0102 5.67927 34.0102 6.01527C34.0102 6.39927 34.0662 7.39927 34.1782 9.01527C34.2902 10.6313 34.4022 12.0073 34.5142 13.1433C34.5942 13.8313 34.6902 14.2953 34.8022 14.5353C34.9302 14.7593 35.1462 14.8713 35.4502 14.8713L36.0262 14.8473L36.0742 14.9193L35.9062 16.0473C35.7782 16.0473 35.5222 16.0393 35.1382 16.0233C34.7702 16.0073 34.3702 15.9993 33.9382 15.9993C33.4742 15.9993 32.9782 16.0153 32.4502 16.0473C31.9222 16.0793 31.5382 16.1113 31.2982 16.1433L31.4422 14.9913C31.8422 14.9433 32.1222 14.8473 32.2822 14.7033C32.4582 14.5593 32.5462 14.3433 32.5462 14.0553C32.5462 13.7513 32.4742 12.7193 32.3302 10.9593C32.2022 9.18327 32.1142 7.97527 32.0662 7.33527H31.9222C30.8982 9.89527 29.8102 12.8313 28.6582 16.1433L27.5542 16.3113Z"
        fill="white" />
    <path
        d="M37.9836 15.0153C38.5436 14.9513 38.9276 14.8073 39.1356 14.5833C39.3436 14.3433 39.4476 13.9513 39.4476 13.4073L39.4716 6.13527C39.4716 5.73527 39.4236 5.47126 39.3276 5.34326C39.2476 5.19927 39.0716 5.12727 38.7996 5.12727L38.1756 5.15127L38.0796 5.03127L38.2476 3.97526C38.4716 3.97526 38.8956 3.98326 39.5196 3.99927C40.1596 4.01527 40.8476 4.02327 41.5836 4.02327C44.3516 4.02327 46.3436 3.95127 47.5596 3.80727L47.6796 3.95126C47.6476 4.14327 47.5756 4.56727 47.4636 5.22326C47.3516 5.87926 47.2716 6.57526 47.2236 7.31126L45.6876 7.40727C45.6876 7.35927 45.6956 7.26327 45.7116 7.11927C45.7276 6.95927 45.7356 6.79926 45.7356 6.63927C45.7356 6.25526 45.6796 5.98326 45.5676 5.82327C45.4556 5.66327 45.2236 5.55927 44.8716 5.51127C44.5196 5.44727 43.9276 5.41527 43.0956 5.41527C42.7276 5.41527 42.4636 5.43127 42.3036 5.46327C42.1596 5.49527 42.0636 5.55127 42.0156 5.63127C41.9676 5.71127 41.9436 5.85527 41.9436 6.06326L41.7996 9.15927L43.6716 9.18327C43.9596 9.18327 44.3756 9.15927 44.9196 9.11127C45.4796 9.04727 45.8476 9.00727 46.0236 8.99127L46.1436 9.15927L45.8556 10.6233C45.6796 10.6233 45.3356 10.6153 44.8236 10.5993C44.3276 10.5833 43.7996 10.5753 43.2396 10.5753C42.8236 10.5753 42.3196 10.6153 41.7276 10.6953C41.6956 11.7193 41.6796 12.6713 41.6796 13.5513C41.6796 13.9033 41.7036 14.1593 41.7516 14.3193C41.8156 14.4633 41.9356 14.5593 42.1116 14.6073C42.2876 14.6553 42.5916 14.6793 43.0236 14.6793C43.9516 14.6793 44.6156 14.6313 45.0156 14.5353C45.4316 14.4393 45.7276 14.2473 45.9036 13.9593C46.0796 13.6713 46.2236 13.1833 46.3356 12.4953L47.7276 12.3993L47.8716 12.5433C47.8236 12.7353 47.7356 13.1673 47.6076 13.8393C47.4956 14.5113 47.4076 15.2153 47.3436 15.9513L47.1516 16.1193C46.7356 16.1033 45.8476 16.0793 44.4876 16.0473C43.1436 16.0153 41.9996 15.9993 41.0556 15.9993C40.3516 15.9993 39.6876 16.0233 39.0636 16.0713C38.4396 16.1353 38.0396 16.1753 37.8636 16.1913L37.9836 15.0153Z"
        fill="white" />
    <path
        d="M53.378 16.2153C52.786 16.2153 52.242 16.1673 51.746 16.0713C51.25 15.9753 50.858 15.8713 50.57 15.7593C50.282 15.6473 50.098 15.5753 50.018 15.5433L49.874 15.2793C49.89 15.1993 49.914 15.0153 49.946 14.7273C49.994 14.4393 50.042 14.0473 50.09 13.5513C50.138 13.0553 50.162 12.5673 50.162 12.0873L51.578 11.9673C51.578 12.7193 51.642 13.2953 51.77 13.6953C51.914 14.0793 52.146 14.3513 52.466 14.5113C52.786 14.6553 53.25 14.7273 53.858 14.7273C54.546 14.7273 55.098 14.5913 55.514 14.3193C55.93 14.0313 56.138 13.6473 56.138 13.1673C56.138 12.8313 56.01 12.5353 55.754 12.2793C55.498 12.0073 55.218 11.7913 54.914 11.6313C54.61 11.4713 54.042 11.1993 53.21 10.8153C52.202 10.3353 51.426 9.85527 50.882 9.37527C50.338 8.87927 50.066 8.23927 50.066 7.45527C50.066 6.75127 50.282 6.12727 50.714 5.58327C51.146 5.02327 51.746 4.59127 52.514 4.28726C53.282 3.96727 54.146 3.80727 55.106 3.80727C55.666 3.80727 56.186 3.83927 56.666 3.90327C57.146 3.96727 57.53 4.03927 57.818 4.11926C58.106 4.18326 58.29 4.23127 58.37 4.26327L58.49 4.50326C58.458 4.67927 58.386 5.07927 58.274 5.70327C58.162 6.32727 58.074 6.99127 58.01 7.69527L56.762 7.79127L56.594 7.69527C56.594 7.66327 56.594 7.58327 56.594 7.45527C56.61 7.31127 56.618 7.14327 56.618 6.95127C56.618 6.37527 56.466 5.96727 56.162 5.72726C55.858 5.48727 55.33 5.36727 54.578 5.36727C53.986 5.36727 53.49 5.51127 53.09 5.79927C52.69 6.07127 52.49 6.41527 52.49 6.83126C52.49 7.26327 52.706 7.63127 53.138 7.93527C53.57 8.23927 54.234 8.59927 55.13 9.01527C55.898 9.36727 56.514 9.68727 56.978 9.97527C57.442 10.2473 57.842 10.5913 58.178 11.0073C58.514 11.4233 58.682 11.9193 58.682 12.4953C58.682 13.2313 58.458 13.8793 58.01 14.4393C57.578 14.9993 56.962 15.4393 56.162 15.7593C55.362 16.0633 54.434 16.2153 53.378 16.2153Z"
        fill="white" />
    <path
        d="M61.1919 14.9193C61.8159 14.8233 62.2399 14.6313 62.4639 14.3433C62.7039 14.0553 62.8239 13.5673 62.8239 12.8793V3.20726C62.8239 2.69527 62.7679 2.35127 62.6559 2.17526C62.5439 1.99927 62.3119 1.91127 61.9599 1.91127C61.7999 1.91127 61.6399 1.91927 61.4799 1.93527C61.3359 1.95126 61.2399 1.95926 61.1919 1.95926L61.0959 1.81527L61.2639 0.615265L61.9359 0.639265L64.1919 0.663264C64.6239 0.663264 65.1839 0.639265 65.8719 0.591265C66.5759 0.527265 67.0399 0.487265 67.2639 0.471265L67.1439 1.81527C66.5999 1.87927 66.2159 1.97527 65.9919 2.10326C65.7839 2.23126 65.6479 2.40726 65.5839 2.63126C65.5199 2.85526 65.4719 3.25526 65.4399 3.83126C65.2479 6.66327 65.1519 9.68726 65.1519 12.9033C65.1519 13.4153 65.1919 13.7833 65.2719 14.0073C65.3679 14.2313 65.5359 14.3833 65.7759 14.4633C66.0319 14.5433 66.4319 14.5833 66.9759 14.5833C67.8559 14.5833 68.5119 14.5033 68.9439 14.3433C69.3759 14.1673 69.6959 13.8393 69.9039 13.3593C70.1279 12.8793 70.3199 12.1113 70.4799 11.0553L71.9439 10.9113L72.0639 11.0793C72.0159 11.3513 71.9119 11.9753 71.7519 12.9513C71.6079 13.9113 71.4879 14.9353 71.3919 16.0233L71.2239 16.2153C70.7759 16.1833 69.8239 16.1353 68.3679 16.0713C66.9279 16.0233 65.6879 15.9993 64.6479 15.9993C63.8319 15.9993 63.0719 16.0313 62.3679 16.0953C61.6799 16.1593 61.2399 16.2073 61.0479 16.2393L61.1919 14.9193Z"
        fill="white" />
    <path
        d="M72.7273 15.0393C73.3193 14.9273 73.7113 14.7673 73.9033 14.5593C74.0953 14.3513 74.1913 13.9833 74.1913 13.4553L74.2153 6.13527C74.2153 5.73527 74.1673 5.47126 74.0713 5.34326C73.9753 5.19927 73.7833 5.12727 73.4953 5.12727L72.7753 5.15127L72.7033 5.00727L72.8233 3.97526C73.1113 3.97526 73.3753 3.98326 73.6153 3.99927L75.4393 4.02327C75.8073 4.02327 76.2873 4.00727 76.8793 3.97526C77.4873 3.92727 77.8873 3.89527 78.0793 3.87927L77.9833 5.03127C77.4713 5.09527 77.1273 5.19127 76.9513 5.31927C76.7913 5.44727 76.6953 5.69527 76.6633 6.06326C76.5033 9.19927 76.4233 11.7113 76.4233 13.5993C76.4233 14.1113 76.4713 14.4553 76.5673 14.6313C76.6793 14.8073 76.8953 14.8953 77.2153 14.8953C77.4393 14.8953 77.6313 14.8873 77.7913 14.8713C77.9673 14.8553 78.0793 14.8393 78.1273 14.8233L78.1993 14.9433L78.0313 16.0473C77.8233 16.0473 77.4313 16.0393 76.8553 16.0233C76.2953 16.0073 75.7433 15.9993 75.1993 15.9993C74.7513 15.9993 74.2473 16.0233 73.6873 16.0713C73.1273 16.1353 72.7593 16.1753 72.5833 16.1913L72.7273 15.0393Z"
        fill="white" />
    <path
        d="M89.8148 5.94326C89.8148 5.65527 89.7588 5.45527 89.6468 5.34326C89.5508 5.21526 89.3908 5.15127 89.1668 5.15127H88.4708L88.4228 5.03127L88.5668 3.95126C88.7428 3.96726 89.0548 3.98326 89.5028 3.99927C89.9668 4.01527 90.4308 4.02327 90.8948 4.02327C91.2788 4.02327 91.7108 4.00727 92.1908 3.97526C92.6708 3.94326 92.9828 3.91927 93.1268 3.90327L93.0308 5.05526C92.5668 5.11927 92.2388 5.23926 92.0468 5.41527C91.8548 5.59127 91.7508 5.87127 91.7348 6.25527L91.4708 16.3113L89.8628 16.5513C88.4868 14.5193 87.0948 12.5433 85.6868 10.6233C84.2948 8.70327 83.5988 7.75927 83.5988 7.79127H83.4308L83.4068 14.0553C83.4068 14.3753 83.4548 14.5993 83.5508 14.7273C83.6468 14.8393 83.8148 14.8953 84.0548 14.8953L84.9428 14.8713L85.0628 14.9433L84.8468 16.0713C84.6708 16.0553 84.3508 16.0393 83.8868 16.0233C83.4228 16.0073 82.9428 15.9993 82.4468 15.9993C82.0468 15.9993 81.6068 16.0153 81.1268 16.0473C80.6628 16.0953 80.3588 16.1273 80.2148 16.1433L80.3588 14.9913C80.7588 14.9433 81.0468 14.8313 81.2228 14.6553C81.4148 14.4793 81.5188 14.1993 81.5348 13.8153L81.7988 6.23127C81.7988 5.83127 81.6868 5.55927 81.4628 5.41527C81.2388 5.25526 80.8068 5.13526 80.1668 5.05526L80.0228 4.91127L80.1908 3.92727C80.3348 3.94326 80.6308 3.96727 81.0788 3.99927C81.5268 4.01527 81.9268 4.02327 82.2788 4.02327C82.6788 4.02327 83.0388 4.01527 83.3588 3.99927C83.6788 3.98326 83.8948 3.96726 84.0068 3.95126C85.1588 5.69527 86.3108 7.35927 87.4628 8.94327C88.6148 10.5273 89.3588 11.5433 89.6948 11.9913H89.8628L89.8148 5.94326Z"
        fill="white" />
    <path
        d="M100.107 16.2153C99.8993 16.1833 99.4673 16.1353 98.8113 16.0713C98.1713 16.0233 97.6273 15.9993 97.1793 15.9993C96.7473 15.9993 96.2673 16.0233 95.7393 16.0713C95.2273 16.1353 94.8913 16.1753 94.7313 16.1913L94.8513 15.0153C95.4273 14.9193 95.8113 14.7593 96.0033 14.5353C96.2113 14.3113 96.3153 13.9433 96.3153 13.4313V6.13527C96.3153 5.75127 96.2673 5.48726 96.1713 5.34326C96.0913 5.19927 95.9233 5.12727 95.6673 5.12727C95.5393 5.12727 95.4113 5.13527 95.2833 5.15127C95.1553 5.16726 95.0673 5.17526 95.0193 5.17526L94.9233 5.03127L95.0913 3.97526C95.2673 3.97526 95.5873 3.98326 96.0513 3.99927C96.5153 4.01527 96.9793 4.02327 97.4433 4.02327C98.0193 4.02327 98.6193 4.01527 99.2433 3.99927C99.8673 3.96727 100.299 3.94326 100.539 3.92727C102.523 3.92727 104.083 4.43127 105.219 5.43927C106.371 6.43127 106.947 7.79927 106.947 9.54327C106.947 10.8233 106.651 11.9753 106.059 12.9993C105.467 14.0073 104.651 14.7993 103.611 15.3753C102.587 15.9353 101.419 16.2153 100.107 16.2153ZM99.3873 5.36727C99.1633 5.36727 99.0113 5.39927 98.9313 5.46327C98.8513 5.52727 98.8033 5.64726 98.7873 5.82327C98.6113 9.39127 98.5233 11.8953 98.5233 13.3353C98.5233 13.8953 98.6513 14.2793 98.9073 14.4873C99.1633 14.6793 99.6673 14.7753 100.419 14.7753C101.651 14.7753 102.595 14.3753 103.251 13.5753C103.923 12.7593 104.259 11.5913 104.259 10.0713C104.259 8.48727 103.851 7.31127 103.035 6.54327C102.235 5.75927 101.019 5.36727 99.3873 5.36727Z"
        fill="white" />
    <path
        d="M112.19 16.2153C111.598 16.2153 111.054 16.1673 110.558 16.0713C110.062 15.9753 109.67 15.8713 109.382 15.7593C109.094 15.6473 108.91 15.5753 108.83 15.5433L108.686 15.2793C108.702 15.1993 108.726 15.0153 108.758 14.7273C108.806 14.4393 108.854 14.0473 108.902 13.5513C108.95 13.0553 108.974 12.5673 108.974 12.0873L110.39 11.9673C110.39 12.7193 110.454 13.2953 110.582 13.6953C110.726 14.0793 110.958 14.3513 111.278 14.5113C111.598 14.6553 112.062 14.7273 112.67 14.7273C113.358 14.7273 113.91 14.5913 114.326 14.3193C114.742 14.0313 114.95 13.6473 114.95 13.1673C114.95 12.8313 114.822 12.5353 114.566 12.2793C114.31 12.0073 114.03 11.7913 113.726 11.6313C113.422 11.4713 112.854 11.1993 112.022 10.8153C111.014 10.3353 110.238 9.85527 109.694 9.37527C109.15 8.87927 108.878 8.23927 108.878 7.45527C108.878 6.75127 109.094 6.12727 109.526 5.58327C109.958 5.02327 110.558 4.59127 111.326 4.28726C112.094 3.96727 112.958 3.80727 113.918 3.80727C114.478 3.80727 114.998 3.83927 115.478 3.90327C115.958 3.96727 116.342 4.03927 116.63 4.11926C116.918 4.18326 117.102 4.23127 117.182 4.26327L117.302 4.50326C117.27 4.67927 117.198 5.07927 117.086 5.70327C116.974 6.32727 116.886 6.99127 116.822 7.69527L115.574 7.79127L115.406 7.69527C115.406 7.66327 115.406 7.58327 115.406 7.45527C115.422 7.31127 115.43 7.14327 115.43 6.95127C115.43 6.37527 115.278 5.96727 114.974 5.72726C114.67 5.48727 114.142 5.36727 113.39 5.36727C112.798 5.36727 112.302 5.51127 111.902 5.79927C111.502 6.07127 111.302 6.41527 111.302 6.83126C111.302 7.26327 111.518 7.63127 111.95 7.93527C112.382 8.23927 113.046 8.59927 113.942 9.01527C114.71 9.36727 115.326 9.68727 115.79 9.97527C116.254 10.2473 116.654 10.5913 116.99 11.0073C117.326 11.4233 117.494 11.9193 117.494 12.4953C117.494 13.2313 117.27 13.8793 116.822 14.4393C116.39 14.9993 115.774 15.4393 114.974 15.7593C114.174 16.0633 113.246 16.2153 112.19 16.2153Z"
        fill="white" />
    <path
        d="M125.26 16.0233L125.332 14.9913C126.004 14.9273 126.436 14.8553 126.628 14.7753C126.836 14.6953 126.94 14.5353 126.94 14.2953C126.94 14.0873 126.892 13.8553 126.796 13.5993L126.34 12.0393C126.004 12.0233 125.372 12.0153 124.444 12.0153C123.948 12.0153 123.3 12.0553 122.5 12.1353L121.924 13.6713C121.844 13.9913 121.804 14.1913 121.804 14.2713C121.804 14.5113 121.876 14.6793 122.02 14.7753C122.18 14.8713 122.444 14.9193 122.812 14.9193H123.7L123.796 15.0393L123.652 16.1193C123.476 16.1033 123.092 16.0793 122.5 16.0473C121.908 16.0153 121.348 15.9993 120.82 15.9993C120.292 15.9993 119.812 16.0073 119.38 16.0233C118.948 16.0393 118.66 16.0473 118.516 16.0473L118.66 14.8953C118.98 14.8473 119.236 14.7353 119.428 14.5593C119.636 14.3673 119.828 14.0473 120.004 13.5993L123.628 4.11926L126.172 3.80727L126.388 3.87927C126.58 4.58327 126.988 6.03127 127.612 8.22327C128.236 10.3993 128.796 12.1913 129.292 13.5993C129.436 14.0633 129.62 14.3913 129.844 14.5833C130.084 14.7593 130.452 14.8713 130.948 14.9193L131.02 15.0393L130.876 16.0473C130.716 16.0473 130.404 16.0393 129.94 16.0233C129.492 16.0073 129.028 15.9993 128.548 15.9993C127.876 15.9993 127.212 16.0153 126.556 16.0473C125.916 16.0953 125.508 16.1273 125.332 16.1433L125.26 16.0233ZM124.42 10.6953C125.044 10.6953 125.572 10.6713 126.004 10.6233L124.732 6.30327H124.492L122.932 10.6953H124.42Z"
        fill="white" />
    <path
        d="M132.991 15.0393C133.503 14.9593 133.871 14.8633 134.095 14.7513C134.319 14.6233 134.471 14.4473 134.551 14.2233C134.631 13.9993 134.671 13.6633 134.671 13.2153V12.5673C134.671 12.2313 134.631 11.9273 134.551 11.6553C134.487 11.3673 134.343 11.0153 134.119 10.5993L132.223 7.09527C131.871 6.42327 131.551 5.95927 131.263 5.70327C130.991 5.43127 130.543 5.24727 129.919 5.15127L129.847 5.05526L130.015 3.97526C130.191 3.97526 130.519 3.98326 130.999 3.99927C131.479 4.01527 131.959 4.02327 132.439 4.02327C132.887 4.02327 133.447 4.00727 134.119 3.97526C134.807 3.92727 135.263 3.89527 135.487 3.87927L135.583 4.04727L135.487 5.00727C134.991 5.03927 134.655 5.10327 134.479 5.19927C134.303 5.27927 134.215 5.42327 134.215 5.63127C134.215 5.77527 134.391 6.22327 134.743 6.97527C135.095 7.71127 135.423 8.39127 135.727 9.01527L136.039 9.68727H136.207L137.959 6.39927C138.167 6.03127 138.271 5.73527 138.271 5.51127C138.271 5.20727 137.911 5.04727 137.191 5.03127L137.143 4.95927L137.263 3.92727L138.055 3.95126C138.583 3.99927 139.159 4.02327 139.783 4.02327C140.231 4.02327 140.639 4.01527 141.007 3.99927C141.375 3.98326 141.623 3.96726 141.751 3.95126L141.823 4.09527L141.679 5.10326C141.135 5.26326 140.711 5.50326 140.407 5.82327C140.103 6.12726 139.703 6.69527 139.207 7.52727L137.311 10.8393C137.135 11.1753 137.023 11.5273 136.975 11.8953C136.943 12.2633 136.927 12.8793 136.927 13.7433C136.927 14.1593 136.991 14.4473 137.119 14.6073C137.247 14.7673 137.487 14.8473 137.839 14.8473C138.063 14.8473 138.263 14.8393 138.439 14.8233C138.631 14.8073 138.759 14.7993 138.823 14.7993L138.871 14.8953L138.679 16.0713C138.455 16.0713 138.039 16.0553 137.431 16.0233C136.839 16.0073 136.247 15.9993 135.655 15.9993C135.207 15.9993 134.671 16.0233 134.047 16.0713C133.439 16.1353 133.039 16.1833 132.847 16.2153L132.991 15.0393Z"
        fill="white" />
</svg>