<svg width="23" height="22" viewBox="0 0 23 22" fill="none" xmlns="http://www.w3.org/2000/svg">
<path fill-rule="evenodd" clip-rule="evenodd" d="M7.64704 0H16.0003C19.8441 0 22.9613 3.07862 22.9613 6.875V15.125C22.9613 18.9214 19.8441 22 16.0003 22H7.64704C3.80317 22 0.686035 18.9214 0.686035 15.125V6.875C0.686035 3.07862 3.80317 0 7.64704 0ZM16 19.9375C18.687 19.9375 20.8727 17.7787 20.8727 15.125V6.875C20.8727 4.22125 18.687 2.0625 16 2.0625H7.64683C4.95988 2.0625 2.77412 4.22125 2.77412 6.875V15.125C2.77412 17.7787 4.95988 19.9375 7.64683 19.9375H16Z" fill="#101010"/>
<path fill-rule="evenodd" clip-rule="evenodd" d="M6.25476 11C6.25476 7.96263 8.7482 5.5 11.8236 5.5C14.8989 5.5 17.3924 7.96263 17.3924 11C17.3924 14.0374 14.8989 16.5 11.8236 16.5C8.7482 16.5 6.25476 14.0374 6.25476 11ZM8.34283 11C8.34283 12.8948 9.90488 14.4375 11.8233 14.4375C13.7418 14.4375 15.3038 12.8948 15.3038 11C15.3038 9.10388 13.7418 7.5625 11.8233 7.5625C9.90488 7.5625 8.34283 9.10388 8.34283 11Z" fill="#101010"/>
<path d="M18.5519 5.08834C18.5519 5.4931 18.2197 5.82122 17.8099 5.82122C17.4001 5.82122 17.0679 5.4931 17.0679 5.08834C17.0679 4.68359 17.4001 4.35547 17.8099 4.35547C18.2197 4.35547 18.5519 4.68359 18.5519 5.08834Z" fill="#101010"/>
</svg>
