<svg width="24" height="18" viewBox="0 0 24 18" fill="none" xmlns="http://www.w3.org/2000/svg">
<path d="M23.1854 2.11613C22.357 2.475 21.4744 2.71288 20.5541 2.82838C21.5008 2.27013 22.2234 1.39287 22.5631 0.3355C21.6804 0.85525 20.7059 1.22238 19.6673 1.42725C18.8292 0.545875 17.6347 0 16.3316 0C13.8033 0 11.7679 2.02675 11.7679 4.51137C11.7679 4.86888 11.7986 5.21263 11.8737 5.53988C8.07721 5.357 4.71783 3.55988 2.46107 0.82225C2.06708 1.49738 1.83597 2.27012 1.83597 3.102C1.83597 4.664 2.65041 6.04862 3.86441 6.85025C3.13072 6.8365 2.41095 6.62613 1.80117 6.29475C1.80117 6.3085 1.80117 6.32638 1.80117 6.34425C1.80117 8.536 3.3841 10.3565 5.45987 10.7759C5.08815 10.8763 4.68302 10.9244 4.26258 10.9244C3.97022 10.9244 3.67507 10.9079 3.39802 10.8474C3.98971 12.6335 5.6687 13.9466 7.66512 13.9893C6.11142 15.1896 4.13867 15.9129 2.00303 15.9129C1.62853 15.9129 1.26934 15.8964 0.910156 15.851C2.93303 17.1394 5.3304 17.875 7.91572 17.875C16.319 17.875 20.9133 11 20.9133 5.04075C20.9133 4.84137 20.9064 4.64887 20.8966 4.45775C21.8029 3.8225 22.5645 3.02913 23.1854 2.11613Z" fill="#101010"/>
</svg>
