<svg width="19" height="19" viewBox="0 0 19 19" fill="none" xmlns="http://www.w3.org/2000/svg">
<path d="M10.6888 16.4848C10.0815 16.1445 9.34091 16.1445 8.73359 16.4848L6.44185 17.7689C4.95281 18.6032 3.17024 17.3089 3.50252 15.6347L4.01541 13.0505C4.15073 12.3687 3.92234 11.6656 3.4122 11.1934L1.47795 9.40313C0.225842 8.24422 0.906486 6.15042 2.60071 5.94929L5.21325 5.63915C5.90409 5.55714 6.50268 5.12203 6.79386 4.49021L7.89481 2.10136C8.60939 0.550849 10.813 0.550852 11.5276 2.10137L12.6285 4.49021C12.9197 5.12203 13.5183 5.55714 14.2091 5.63915L16.8217 5.94929C18.5159 6.15042 19.1965 8.24422 17.9444 9.40313L16.0102 11.1934C15.5 11.6656 15.2716 12.3687 15.407 13.0505L15.9199 15.6347C16.2521 17.3089 14.4696 18.6032 12.9805 17.7689L10.6888 16.4848Z" fill="#FFCE31"/>
</svg>
